<svg width="178" height="161" viewBox="0 0 178 161" fill="none" xmlns="http://www.w3.org/2000/svg">
<path d="M69.3317 97.9812H13.841V22.3783C13.8415 16.3566 69.3326 16.3566 69.3322 22.3783L69.3317 97.9812Z" fill="#E0E0E0"/>
<path d="M68.0569 97.9817H12.5658V22.3788C12.5658 16.357 68.0574 16.357 68.0569 22.3788V97.9817Z" fill="#EBEBEB"/>
<path d="M15.32 94.1863V23.87C15.32 23.3861 15.6336 22.9562 16.1068 22.7923C19.1873 21.7257 27.5742 20.5125 40.3117 20.5125C53.0483 20.5125 61.4356 21.7257 64.5166 22.7923C64.9898 22.9562 65.3033 23.3861 65.3033 23.87V94.1863C65.3033 94.8181 64.7713 95.3302 64.1149 95.3302H16.508C15.852 95.3302 15.32 94.8181 15.32 94.1863Z" fill="#FAFAFA"/>
<path d="M27.0518 21.0203L18.3991 95.3281H31.0361L39.7484 20.5121C34.8368 20.5258 30.5863 20.7242 27.0518 21.0203Z" fill="white"/>
<path d="M43.3931 20.5386L34.6808 95.3281H41.6625L50.3473 20.7905C48.2316 20.6668 45.9085 20.5784 43.3931 20.5386Z" fill="white"/>
<path d="M50.9973 19.3712H48.5746V96.312H50.9973V19.3712Z" fill="#EBEBEB"/>
<path d="M31.4796 19.3712H29.0569V96.312H31.4796V19.3712Z" fill="#EBEBEB"/>
<path d="M31.9174 19.3712H31.4795V96.312H31.9174V19.3712Z" fill="#E0E0E0"/>
<path d="M51.4353 19.3712H50.9973V96.312H51.4353V19.3712Z" fill="#E0E0E0"/>
<path d="M66.1915 36.3204H13.8626V38.6524H66.1915V36.3204Z" fill="#EBEBEB"/>
<path d="M66.6505 97.2696H10.0375V99.8468H66.6505V97.2696Z" fill="#F5F5F5"/>
<path d="M69.3316 97.2696H66.6505V99.8468H69.3316V97.2696Z" fill="#E0E0E0"/>
<path d="M167.963 97.9812H112.471V22.3783C112.472 16.3566 167.963 16.3566 167.963 22.3783V97.9812Z" fill="#E0E0E0"/>
<path d="M166.687 97.9817H111.196V22.3788C111.197 16.357 166.688 16.357 166.687 22.3788V97.9817Z" fill="#EBEBEB"/>
<path d="M113.95 94.1863V23.87C113.95 23.3861 114.264 22.9562 114.737 22.7923C117.818 21.7257 126.205 20.5125 138.942 20.5125C151.679 20.5125 160.066 21.7257 163.147 22.7923C163.62 22.9562 163.934 23.3861 163.934 23.87V94.1863C163.934 94.8181 163.402 95.3302 162.745 95.3302H115.139C114.482 95.3302 113.95 94.8181 113.95 94.1863Z" fill="#FAFAFA"/>
<path d="M125.683 21.0203L117.03 95.3281H129.667L138.379 20.5121C133.468 20.5258 129.217 20.7242 125.683 21.0203Z" fill="white"/>
<path d="M142.024 20.5386L133.312 95.3281H140.293L148.978 20.7905C146.862 20.6668 144.539 20.5784 142.024 20.5386Z" fill="white"/>
<path d="M149.628 19.3712H147.205V96.312H149.628V19.3712Z" fill="#EBEBEB"/>
<path d="M130.11 19.3712H127.688V96.312H130.11V19.3712Z" fill="#EBEBEB"/>
<path d="M130.548 19.3712H130.11V96.312H130.548V19.3712Z" fill="#E0E0E0"/>
<path d="M150.066 19.3712H149.628V96.312H150.066V19.3712Z" fill="#E0E0E0"/>
<path d="M164.822 36.3204H112.493V38.6524H164.822V36.3204Z" fill="#EBEBEB"/>
<path d="M165.281 97.2696H108.668V99.8468H165.281V97.2696Z" fill="#F5F5F5"/>
<path d="M167.963 97.2696H165.281V99.8468H167.963V97.2696Z" fill="#E0E0E0"/>
<path d="M13.8405 6.20776H0V9.97308H13.8405V6.20776Z" fill="#F0F0F0"/>
<path d="M20.7609 9.97308H6.92032V13.7384H20.7609V9.97308Z" fill="#E6E6E6"/>
<path d="M106.803 58.8542H92.9623V62.6196H106.803V58.8542Z" fill="#F5F5F5"/>
<path d="M126.71 110.323H112.869V114.088H126.71V110.323Z" fill="#F5F5F5"/>
<path d="M29.1605 111.501H15.32V115.266H29.1605V111.501Z" fill="#E6E6E6"/>
<path d="M70.2588 2.44293H56.4183V6.20825H70.2588V2.44293Z" fill="#F0F0F0"/>
<path d="M73.1118 107.735H59.2712V111.501H73.1118V107.735Z" fill="#F5F5F5"/>
<path d="M174.883 105.853H161.042V109.619H174.883V105.853Z" fill="#F5F5F5"/>
<path d="M66.1915 111.501H52.351V115.266H66.1915V111.501Z" fill="#F0F0F0"/>
<path d="M122.509 9.97308H108.668V13.7384H122.509V9.97308Z" fill="#F0F0F0"/>
<path d="M170.135 11.9004C173.549 11.9004 176.317 9.23657 176.317 5.9502C176.317 2.66382 173.549 0 170.135 0H169.387V11.9004H170.135Z" fill="#E0E0E0"/>
<path d="M169.387 11.9004C172.801 11.9004 175.568 9.2364 175.568 5.9502C175.568 2.66399 172.801 0 169.387 0C165.973 0 163.205 2.66399 163.205 5.9502C163.205 9.2364 165.973 11.9004 169.387 11.9004Z" fill="#EBEBEB"/>
<path opacity="0.6" d="M164.912 5.88159C165.615 6.42281 167.058 5.81146 168.134 4.51609C169.21 3.22073 169.513 1.73189 168.81 1.19066C168.107 0.64944 166.664 1.26079 165.588 2.55616C164.512 3.85152 164.209 5.34037 164.912 5.88159Z" fill="#F5F5F5"/>
<path d="M169.387 6.78558C169.866 6.78558 170.255 6.41151 170.255 5.95007C170.255 5.48863 169.866 5.11456 169.387 5.11456C168.907 5.11456 168.519 5.48863 168.519 5.95007C168.519 6.41151 168.907 6.78558 169.387 6.78558Z" fill="#E0E0E0"/>
<path d="M172.661 16.272H167.849C166.84 16.272 166.014 15.4772 166.014 14.506C166.014 13.5349 166.84 12.74 167.849 12.74H172.661C173.67 12.74 174.496 13.5349 174.496 14.506C174.496 15.4776 173.67 16.272 172.661 16.272Z" fill="#E0E0E0"/>
<path d="M171.793 16.272H166.981C165.972 16.272 165.146 15.4772 165.146 14.506C165.146 13.5349 165.972 12.74 166.981 12.74H171.793C172.802 12.74 173.628 13.5349 173.628 14.506C173.628 15.4776 172.802 16.272 171.793 16.272Z" fill="#F5F5F5"/>
<path d="M174.086 14.1995L173.934 13.7329C175.418 13.2836 176.247 11.7557 175.78 10.3264L176.265 10.1797C176.816 11.8662 175.838 13.6693 174.086 14.1995Z" fill="#E0E0E0"/>
<path d="M176.257 10.9691C175.999 11.0469 175.722 10.9082 175.642 10.6603L175.468 10.1292C175.387 9.88133 175.531 9.6149 175.789 9.53714C176.046 9.45938 176.323 9.59856 176.404 9.84599L176.578 10.3771C176.658 10.6245 176.514 10.8914 176.257 10.9691Z" fill="#E0E0E0"/>
<path d="M89 161C138.153 161 178 158.76 178 155.997C178 153.234 138.153 150.994 89 150.994C39.8467 150.994 0 153.234 0 155.997C0 158.76 39.8467 161 89 161Z" fill="#F5F5F5"/>
<path d="M22.2879 17.9853C22.1975 17.9853 22.1103 17.9362 22.0685 17.8523C21.6761 17.0636 22.1502 16.4389 22.6519 15.7774C23.3717 14.8288 24.2673 13.6482 23.324 11.3388C21.6499 7.23896 22.9889 4.85703 23.0467 4.75762C23.1123 4.64539 23.2592 4.60518 23.3767 4.66792C23.4938 4.73067 23.536 4.87294 23.4713 4.9856C23.4584 5.00814 22.1929 7.29022 23.7766 11.1678C24.8176 13.7167 23.7926 15.067 23.0444 16.0531C22.5156 16.7499 22.2517 17.1378 22.5064 17.6504C22.5643 17.767 22.5133 17.9066 22.3921 17.9623C22.3586 17.9778 22.3228 17.9853 22.2879 17.9853Z" fill="#3987FB"/>
<path d="M23.2702 5.52768C22.8948 5.52768 22.5891 5.23341 22.5891 4.87199C22.5891 4.51057 22.8948 4.21631 23.2702 4.21631C23.6462 4.21631 23.9514 4.51057 23.9514 4.87199C23.9514 5.23341 23.6457 5.52768 23.2702 5.52768ZM23.2702 4.68333C23.1624 4.68333 23.0747 4.76772 23.0747 4.87155C23.0747 4.97538 23.1624 5.05977 23.2702 5.05977C23.3781 5.05977 23.4658 4.97538 23.4658 4.87155C23.4658 4.76772 23.3781 4.68333 23.2702 4.68333Z" fill="#3987FB"/>
<path d="M30.9823 13.87L31.2146 14.2358L8.46893 27.6102L8.23712 27.2443L17.4544 17.1612L30.9823 13.87Z" fill="#263238"/>
<path d="M31.2146 14.2358L21.9973 24.319L8.46893 27.6102L17.6866 17.5266L31.2146 14.2358Z" fill="#3987FB"/>
<path d="M29.5221 22.0382C24.7653 24.0437 20.3031 26.6673 16.2779 29.826C16.024 30.0252 15.6559 29.9815 15.4966 29.7305L13.0633 25.8967C12.9334 25.6922 12.9894 25.4182 13.196 25.2552C17.2932 22.0227 21.8459 19.3461 26.7037 17.3128C26.9488 17.2103 27.2275 17.2876 27.3574 17.4921L29.7907 21.326C29.9495 21.5765 29.8219 21.9118 29.5221 22.0382Z" fill="#3987FB"/>
<path opacity="0.3" d="M29.5221 22.0382C24.7653 24.0437 20.3031 26.6673 16.2779 29.826C16.024 30.0252 15.6559 29.9815 15.4966 29.7305L13.0633 25.8967C12.9334 25.6922 12.9894 25.4182 13.196 25.2552C17.2932 22.0227 21.8459 19.3461 26.7037 17.3128C26.9488 17.2103 27.2275 17.2876 27.3574 17.4921L29.7907 21.326C29.9495 21.5765 29.8219 21.9118 29.5221 22.0382Z" fill="#263238"/>
<path d="M157.116 60.6048C157.012 60.6048 156.91 60.5624 156.838 60.4802C155.988 59.5095 156.379 58.4601 156.793 57.3498C157.411 55.6885 158.113 53.8054 155.283 51.2158C149.691 46.0985 153.159 41.0783 153.195 41.0284C153.308 40.8689 153.534 40.8282 153.7 40.9374C153.865 41.0461 153.908 41.2639 153.795 41.4238C153.664 41.609 150.653 46.0123 155.784 50.7081C158.958 53.6123 158.102 55.909 157.477 57.5862C157.053 58.723 156.841 59.3973 157.394 60.0291C157.523 60.1771 157.504 60.398 157.35 60.5226C157.282 60.5778 157.199 60.6048 157.116 60.6048Z" fill="#3987FB"/>
<path d="M153.511 42.2051C153.057 42.2051 152.642 41.9113 152.523 41.469C152.454 41.2149 152.493 40.9503 152.631 40.724C152.769 40.4978 152.991 40.337 153.255 40.2712C153.8 40.136 154.358 40.4514 154.499 40.9754C154.641 41.4999 154.312 42.0372 153.768 42.1733C153.681 42.1949 153.595 42.2051 153.511 42.2051ZM153.511 40.9401C153.487 40.9401 153.462 40.9432 153.438 40.9494C153.362 40.9684 153.298 41.0143 153.259 41.0793C153.219 41.1442 153.208 41.2202 153.227 41.2931C153.268 41.4438 153.428 41.5344 153.585 41.4955C153.741 41.4566 153.836 41.302 153.795 41.1517C153.775 41.0788 153.728 41.0179 153.66 40.9794C153.614 40.9534 153.563 40.9401 153.511 40.9401Z" fill="#3987FB"/>
<path d="M170.456 78.1653L169.99 78.5095L148.566 51.6371L149.032 51.2924L164.075 61.5302L170.456 78.1653Z" fill="#263238"/>
<path d="M169.99 78.5093L154.947 68.2724L148.566 51.6369L163.609 61.8747L169.99 78.5093Z" fill="#3987FB"/>
<path d="M159.111 77.4623C155.71 71.7312 151.507 66.4597 146.636 61.8147C146.329 61.5217 146.336 61.0503 146.656 60.8144L151.545 57.2032C151.806 57.0106 152.188 57.0429 152.439 57.281C157.421 62.0064 161.709 67.3849 165.162 73.2396C165.336 73.5348 165.269 73.898 165.009 74.0906L160.12 77.7017C159.801 77.9381 159.325 77.8237 159.111 77.4623Z" fill="#3987FB"/>
<path opacity="0.3" d="M159.111 77.4623C155.71 71.7312 151.507 66.4597 146.636 61.8147C146.329 61.5217 146.336 61.0503 146.656 60.8144L151.545 57.2032C151.806 57.0106 152.188 57.0429 152.439 57.281C157.421 62.0064 161.709 67.3849 165.162 73.2396C165.336 73.5348 165.269 73.898 165.009 74.0906L160.12 77.7017C159.801 77.9381 159.325 77.8237 159.111 77.4623Z" fill="#263238"/>
<path d="M29.8573 68.9853C32.784 70.158 35.8696 70.9444 39.0153 71.32C39.2136 71.3439 39.349 71.5184 39.3013 71.692L38.5719 74.343C38.5329 74.4844 38.3837 74.5763 38.2221 74.5578C35.0117 74.1831 31.8637 73.3807 28.8819 72.1767C28.7318 72.1162 28.6491 71.9651 28.6882 71.8237L29.4175 69.1727C29.4653 68.9986 29.6728 68.9116 29.8573 68.9853Z" fill="#3987FB"/>
<path d="M26.6933 67.949L26.763 67.6963L42.4911 71.7059L42.4218 71.9587L33.9114 72.3024L26.6933 67.949Z" fill="#263238"/>
<path d="M26.763 67.6962L35.2729 67.3525L42.4911 71.7059L33.9807 72.0496L26.763 67.6962Z" fill="#3987FB"/>
<g opacity="0.4">
<path opacity="0.4" d="M26.763 67.6962L35.2729 67.3525L42.4911 71.7059L33.9807 72.0496L26.763 67.6962Z" fill="#263238"/>
</g>
<path d="M35.065 69.8223C35.043 69.8223 35.021 69.817 35.0003 69.8055C34.9388 69.771 34.9182 69.695 34.954 69.6358C35.1114 69.3752 34.9888 69.1591 34.7405 68.769C34.3884 68.2167 33.9065 67.4607 34.5698 66.1555C35.5837 64.1606 35.0109 62.9111 35.0049 62.8987C34.9751 62.8364 35.0035 62.7631 35.0683 62.7344C35.133 62.7057 35.2096 62.733 35.239 62.7953C35.2652 62.8501 35.8679 64.165 34.8011 66.2642C34.1998 67.447 34.6216 68.108 34.9599 68.6391C35.1959 69.0093 35.419 69.3593 35.1766 69.7604C35.1527 69.8002 35.1096 69.8223 35.065 69.8223Z" fill="#3987FB"/>
<path d="M35.116 63.1942C35.1064 63.1942 35.0967 63.1938 35.0866 63.1929C34.9902 63.1854 34.903 63.1421 34.8401 63.0714C34.7777 63.0007 34.7474 62.9105 34.7552 62.8177C34.763 62.725 34.8075 62.641 34.8814 62.5805C34.9549 62.52 35.049 62.4917 35.1449 62.4987C35.2413 62.5063 35.3285 62.5491 35.3914 62.6202C35.4538 62.6909 35.4841 62.7811 35.4763 62.8739C35.4612 63.0559 35.3024 63.1942 35.116 63.1942ZM35.116 62.7466C35.0912 62.7466 35.0678 62.755 35.049 62.7705C35.0279 62.7877 35.015 62.812 35.0127 62.8385C35.0081 62.8933 35.0508 62.9419 35.1077 62.9463C35.166 62.9507 35.2151 62.9096 35.2197 62.8544C35.2243 62.7996 35.1816 62.7515 35.1247 62.7471C35.1215 62.7466 35.1188 62.7466 35.116 62.7466Z" fill="#3987FB"/>
<path d="M88.4373 25.6197C85.1181 24.7378 83.2563 29.7636 82.3658 33.9717C81.4753 38.1797 77.5891 38.8031 77.5891 38.8031C77.5891 38.8031 89.2796 46.123 97.9901 42.0758C105.006 38.816 102.767 31.1059 99.6091 27.5549C96.4519 24.0039 90.4611 22.5666 88.4373 25.6197Z" fill="#263238"/>
<path d="M94.9013 152.059L90.9371 152.432L86.8119 143.349L90.7765 142.976L94.9013 152.059Z" fill="#FF8B7B"/>
<path d="M120.045 140.86L116.844 143.301L111.03 136.007L114.232 133.565L120.045 140.86Z" fill="#FF8B7B"/>
<path d="M115.587 141.904L118.154 138.217C118.247 138.083 118.42 138.036 118.569 138.105L121.892 139.641C122.237 139.8 122.353 140.252 122.131 140.558C121.213 141.828 120.703 142.397 119.575 144.018C118.88 145.015 117.496 147.32 116.536 148.697C115.598 150.044 114.111 149.235 114.383 148.579C115.599 145.637 115.567 143.941 115.414 142.587C115.387 142.343 115.45 142.1 115.587 141.904Z" fill="#263238"/>
<path d="M90.4106 151.253H95.2795C95.4566 151.253 95.6164 151.371 95.6641 151.538L96.7226 155.246C96.8323 155.63 96.5381 155.984 96.1287 155.988C94.4128 156.003 93.5994 155.995 91.4585 155.995C90.1411 155.995 86.7333 155.995 84.9142 155.995C83.135 155.995 82.7628 154.264 83.499 154.107C86.7999 153.404 88.7025 152.434 89.7211 151.51C89.9047 151.343 90.1512 151.253 90.4106 151.253Z" fill="#263238"/>
<path opacity="0.2" d="M86.8137 143.352L88.9394 148.034H93.0748L90.7796 142.979L86.8137 143.352Z" fill="black"/>
<path opacity="0.2" d="M114.234 133.566L111.031 136.009L114.03 139.767L117.232 137.325L114.234 133.566Z" fill="black"/>
<path d="M83.0212 70.7651C83.0212 70.7651 75.3403 94.1523 77.6102 111.262C79.1305 122.722 87.1506 146.676 87.1506 146.676L94.2338 146.501C94.2338 146.501 88.4964 122.172 87.9029 112.672C86.888 96.4233 95.2276 70.7368 95.2276 70.7368L83.0212 70.7651Z" fill="#3987FB"/>
<path d="M86.1513 147.029L94.9012 146.815L94.3954 144.227H85.5229L86.1513 147.029Z" fill="#263238"/>
<path d="M86.6613 70.8039C86.6613 70.8039 87.7382 96.3526 93.6523 110.732C98.4293 122.346 112.389 139.458 112.389 139.458L116.653 135.885C116.653 135.885 107.793 117.798 104.166 110.046C95.2722 91.0391 105.047 77.8746 99.6894 70.7261L86.6613 70.8039Z" fill="#3987FB"/>
<path d="M111.946 139.947L117.425 135.606L115.937 133.27L109.939 138.074L111.946 139.947Z" fill="#263238"/>
<path d="M114.623 143.919C114.504 143.91 114.389 143.857 114.279 143.762C114.161 143.66 114.152 143.55 114.165 143.475C114.25 142.986 115.605 142.424 115.759 142.361C115.788 142.349 115.823 142.355 115.846 142.377C115.87 142.398 115.877 142.431 115.866 142.46C115.675 142.95 115.282 143.788 114.783 143.906C114.729 143.919 114.676 143.924 114.623 143.919ZM115.643 142.581C115.177 142.788 114.376 143.201 114.324 143.501C114.318 143.535 114.318 143.587 114.386 143.646C114.505 143.748 114.622 143.784 114.744 143.755C115.028 143.688 115.358 143.254 115.643 142.581Z" fill="#3987FB"/>
<path d="M114.529 142.687C114.284 142.667 114.073 142.61 113.959 142.5C113.898 142.441 113.813 142.313 113.919 142.111C113.987 141.981 114.097 141.897 114.245 141.86C114.815 141.715 115.794 142.342 115.835 142.368C115.859 142.384 115.872 142.41 115.87 142.437C115.869 142.465 115.852 142.49 115.826 142.502C115.566 142.628 114.989 142.724 114.529 142.687ZM114.51 141.996C114.43 141.99 114.354 141.994 114.286 142.011C114.183 142.036 114.11 142.092 114.063 142.182C114.002 142.298 114.037 142.354 114.074 142.39C114.297 142.605 115.158 142.563 115.613 142.418C115.382 142.285 114.892 142.027 114.51 141.996Z" fill="#3987FB"/>
<path d="M88.2504 152.011C87.8776 152.011 87.5311 151.956 87.3103 151.795C87.1616 151.687 87.0808 151.539 87.0698 151.356C87.0619 151.224 87.128 151.153 87.185 151.116C87.6279 150.826 89.3961 151.611 89.5962 151.702C89.6274 151.716 89.6458 151.748 89.6421 151.781C89.6385 151.814 89.6132 151.841 89.5792 151.848C89.2267 151.924 88.7177 152.011 88.2504 152.011ZM87.4728 151.204C87.3865 151.204 87.319 151.216 87.2754 151.245C87.2529 151.259 87.2277 151.284 87.2313 151.348C87.2396 151.485 87.2974 151.591 87.4081 151.671C87.8074 151.962 88.7773 151.84 89.302 151.745C88.6965 151.488 87.8799 151.204 87.4728 151.204Z" fill="#3987FB"/>
<path d="M89.5619 151.851C89.5518 151.851 89.5412 151.849 89.5311 151.845C88.9996 151.636 87.8855 150.775 87.9456 150.348C87.9585 150.257 88.0241 150.142 88.2642 150.114C89.2171 150.008 89.6238 151.684 89.6404 151.756C89.6472 151.784 89.6367 151.814 89.6137 151.833C89.599 151.844 89.5807 151.851 89.5619 151.851ZM88.351 150.265C88.3289 150.265 88.3064 150.266 88.2835 150.269C88.1173 150.288 88.1086 150.349 88.1058 150.368C88.0673 150.642 88.8632 151.341 89.4389 151.631C89.32 151.241 88.9624 150.265 88.351 150.265Z" fill="#3987FB"/>
<path d="M58.1682 33.0227L56.7562 30.0452L65.956 26.3678L74.8698 22.0878L76.2813 25.0653L67.082 28.7422L58.1682 33.0227Z" fill="#3987FB"/>
<path opacity="0.5" d="M58.1682 33.0227L56.7562 30.0452L65.956 26.3678L74.8698 22.0878L76.2813 25.0653L67.082 28.7422L58.1682 33.0227Z" fill="#FAFAFA"/>
<path d="M68.8346 28.539L68.7272 28.5708C68.4545 28.6508 68.163 28.5019 68.0795 28.2394L67.3074 25.8067C67.2238 25.5442 67.379 25.2636 67.6517 25.1832L67.7591 25.1514C68.0317 25.071 68.3232 25.2203 68.4068 25.4828L69.1788 27.9155C69.2624 28.1784 69.1077 28.459 68.8346 28.539Z" fill="#3987FB"/>
<path d="M65.9441 29.8043L65.8523 29.867C65.6195 30.0261 65.2945 29.9731 65.1293 29.7491L63.5989 27.6751C63.4337 27.4511 63.4887 27.1383 63.7215 26.9792L63.8133 26.9165C64.046 26.7574 64.371 26.8104 64.5362 27.0344L66.0666 29.1084C66.2319 29.332 66.1768 29.6452 65.9441 29.8043Z" fill="#3987FB"/>
<path d="M67.6544 31.5386L68.6266 28.1369L64.4109 28.8955C64.4109 28.8955 64.4651 31.2881 66.4678 32.5111L67.6544 31.5386Z" fill="#FF8B7B"/>
<path d="M67.2023 24.9454L64.1815 26.0708L64.411 28.8959L68.6271 28.1373L67.2023 24.9454Z" fill="#FF8B7B"/>
<path d="M64.1231 39.2415C64.231 35.6216 65.7692 30.5807 65.7692 30.5807L67.9009 30.3244C67.9009 30.3244 67.3344 34.4003 67.6851 38.0631L64.1231 39.2415Z" fill="#FF8B7B"/>
<path d="M84.7348 54.8207C84.4704 54.8931 84.3111 54.9267 84.1064 54.9749L83.5326 55.0999L82.4048 55.3363C81.6542 55.4847 80.906 55.6292 80.1464 55.7467C78.6302 55.9968 77.0842 56.1842 75.4592 56.269C73.8265 56.3202 72.1217 56.3357 70.1951 55.9027C69.2349 55.6814 68.2007 55.3566 67.1605 54.7645C66.9025 54.6227 66.6427 54.4407 66.3903 54.2715L66.2943 54.2047L66.1621 54.1018L65.9033 53.8893C65.7504 53.751 65.5943 53.6038 65.4626 53.4629C64.9324 52.8938 64.5918 52.3548 64.3215 51.8586C63.7936 50.8676 63.5085 50.0091 63.2813 49.1903C63.0564 48.373 62.9077 47.5993 62.781 46.8429C62.5138 45.3349 62.3949 43.8883 62.2728 42.4603C62.1695 41.0327 62.0933 39.6242 62.0461 38.2187L61.9749 36.1103L61.9469 35.0503C61.9354 34.6862 61.9226 34.3566 61.9226 33.9448L71.1155 34.7313C71.0563 34.984 70.9938 35.3194 70.9369 35.6211L70.7864 36.5587C70.6918 37.1866 70.6193 37.8184 70.5472 38.4484C70.4228 39.7099 70.337 40.9704 70.3227 42.2089C70.2915 43.4465 70.3595 44.666 70.4742 45.8006C70.5412 46.3648 70.6372 46.9056 70.7496 47.3824C70.8598 47.856 71.0049 48.2753 71.1086 48.4728C71.1573 48.5678 71.1921 48.5956 71.1247 48.5236C71.1081 48.5073 71.0792 48.4741 71.0489 48.4529C71.0301 48.4344 71.0099 48.4171 70.9888 48.4012L70.9557 48.3787L70.9668 48.3831C71.0035 48.3973 71.0168 48.4224 71.0613 48.4436C71.2151 48.532 71.5038 48.6553 71.8926 48.7322C72.6766 48.8842 73.7755 48.9177 74.902 48.7936C76.0417 48.6822 77.2384 48.4414 78.4314 48.1308C79.0259 47.966 79.6235 47.7915 80.2102 47.5887C80.5035 47.4875 80.794 47.3824 81.0805 47.2741L81.5 47.1031C81.6249 47.0492 81.7952 46.9803 81.8585 46.9436L84.7348 54.8207Z" fill="#263238"/>
<g opacity="0.2">
<path opacity="0.2" d="M80.5695 124.835C81.2168 127.256 81.9053 129.695 82.5847 132.024C84.586 131.489 87.432 130.698 90.5901 129.704C90.053 127.018 89.5343 124.274 89.0937 121.702L80.5695 124.835Z" fill="black"/>
<path opacity="0.2" d="M106.643 115.261L97.6595 118.557C99.032 120.89 100.547 123.249 102.066 125.498C105.004 124.208 107.657 122.812 109.576 121.345C108.57 119.264 107.565 117.178 106.643 115.261Z" fill="black"/>
</g>
<path d="M80.4783 48.9875C80.7463 55.0509 72.5601 79.9867 76.3746 130.898C80.2065 131.729 107.786 120.508 111.031 117.313C110.755 111.21 99.1234 71.6488 101.996 49.2739C102.178 47.8538 101.338 46.5128 99.8675 46.3038C98.6194 46.1267 97.0707 45.9495 95.504 45.8806C92.6989 45.7568 90.4006 45.676 87.9351 45.8982C86.0453 46.0688 83.9705 46.4086 82.5645 46.6631C81.3899 46.876 80.4273 47.8379 80.4783 48.9875Z" fill="#263238"/>
<path d="M94.7332 37.6788C94.2618 40.024 93.7959 44.3204 95.5039 45.8806C95.5039 45.8806 93.0761 49.5345 88.9357 51.3355C85.6395 48.6509 87.9351 45.8982 87.9351 45.8982C90.6493 45.2677 90.5745 43.3285 90.0966 41.5082L94.7332 37.6788Z" fill="#FF8B7B"/>
<path d="M88.7609 51.8807L89.2737 49.0503L94.8595 44.7004L96.7755 45.7586C96.776 45.7586 91.7565 52.0358 88.7609 51.8807Z" fill="#E6E6E6"/>
<path d="M88.7609 51.8807L89.2737 49.0503L88.5383 45.4462L86.7596 45.7586C86.7596 45.7586 85.7658 52.0358 88.7609 51.8807Z" fill="#E6E6E6"/>
<path d="M89.2736 49.0503C89.2736 49.0503 91.6752 51.3297 91.7968 53.3944C93.4158 51.8749 97.3019 47.0046 97.3827 45.6018C96.5326 44.92 94.8122 44.5069 94.8122 44.5069L89.2736 49.0503Z" fill="white"/>
<path d="M89.2735 49.0502C89.2735 49.0502 86.9417 50.8348 86.82 52.8995C85.2011 51.38 85.9607 47.0761 86.1632 45.8876C87.0133 45.2058 88.7066 44.9849 88.7066 44.9849L89.2735 49.0502Z" fill="white"/>
<path opacity="0.2" d="M92.843 39.2416L90.0984 41.5064C90.2132 41.9372 90.3023 42.3742 90.3353 42.7992C91.3722 42.6525 92.9338 41.7543 93.0413 40.7085C93.095 40.1867 92.932 39.4841 92.843 39.2416Z" fill="black"/>
<path d="M97.2193 34.1563C95.8638 37.8536 95.3717 39.4464 92.8246 40.8355C88.9931 42.9249 84.5717 40.5139 84.7526 36.5011C84.9155 32.8895 87.1051 27.4501 91.3759 27.0034C95.5833 26.5633 98.5752 30.459 97.2193 34.1563Z" fill="#FF8B7B"/>
<path d="M95.6155 29.8546C93.201 30.6716 93.4117 35.3095 95.8087 36.92C98.2058 38.5305 101.066 28.0104 95.6155 29.8546Z" fill="#263238"/>
<path d="M88.5465 28.1801C90.9775 30.2319 94.473 31.0295 95.6963 30.4339C96.5868 31.101 99.5553 32.4522 97.7876 29.2312C96.0199 26.0102 92.8889 25.5949 90.8522 25.6205C88.8155 25.6461 86.4703 26.4277 88.5465 28.1801Z" fill="#263238"/>
<path d="M97.2331 37.6367C96.7328 38.3786 95.9598 38.8314 95.2652 38.9746C94.221 39.1902 93.8345 38.2164 94.2384 37.2505C94.602 36.381 95.5838 35.2216 96.5771 35.4408C97.5562 35.6573 97.8055 36.7888 97.2331 37.6367Z" fill="#FF8B7B"/>
<path d="M90.4335 34.0318C90.6417 34.089 90.8841 33.8869 90.975 33.5804C91.0658 33.274 90.9707 32.9792 90.7625 32.922C90.5543 32.8648 90.3119 33.0669 90.2211 33.3734C90.1302 33.6798 90.2253 33.9746 90.4335 34.0318Z" fill="#263238"/>
<path d="M86.8385 33.0393C87.0466 33.0965 87.2891 32.8945 87.3799 32.588C87.4708 32.2816 87.3756 31.9868 87.1675 31.9296C86.9593 31.8724 86.7168 32.0745 86.626 32.3809C86.5351 32.6874 86.6303 32.9822 86.8385 33.0393Z" fill="#263238"/>
<path d="M87.2539 31.9746L86.552 31.5527C86.552 31.5527 86.7742 32.2353 87.2539 31.9746Z" fill="#263238"/>
<path d="M88.1742 33.3788C88.1742 33.3788 87.2428 34.5497 86.4597 35.0229C86.7682 35.516 87.5338 35.5394 87.5338 35.5394L88.1742 33.3788Z" fill="#FF5652"/>
<path d="M88.9004 37.1453C88.7117 37.1299 88.5111 37.0963 88.3009 37.0384C88.2577 37.0265 88.233 36.9836 88.2453 36.9421C88.2577 36.9006 88.3032 36.8758 88.3454 36.8886C89.7487 37.2744 90.6887 36.5091 90.6979 36.5012C90.7319 36.4733 90.7828 36.4764 90.8118 36.5091C90.8411 36.5414 90.8375 36.5908 90.8035 36.6187C90.7686 36.6483 90.0466 37.2381 88.9004 37.1453Z" fill="#263238"/>
<path d="M92.9449 31.7789C92.8903 31.7745 92.8393 31.7436 92.8136 31.6928C92.4244 30.9359 91.7152 30.8414 91.6849 30.8374C91.5968 30.8268 91.5339 30.749 91.5444 30.6642C91.5554 30.5793 91.6344 30.5193 91.7235 30.5285C91.7602 30.5325 92.6337 30.6416 93.1028 31.5545C93.1423 31.6318 93.1097 31.7246 93.0298 31.763C93.0028 31.7763 92.9729 31.7811 92.9449 31.7789Z" fill="#263238"/>
<path d="M86.1224 30.6544C86.0659 30.65 86.0136 30.6168 85.9884 30.5634C85.9516 30.4852 85.9874 30.3928 86.0687 30.3575C87.0326 29.9373 87.7804 30.3844 87.8116 30.4039C87.8864 30.4498 87.9085 30.5457 87.8612 30.6182C87.8139 30.6902 87.7143 30.7123 87.6386 30.6668C87.6128 30.6509 87.0019 30.2925 86.2027 30.6411C86.1766 30.6522 86.149 30.6566 86.1224 30.6544Z" fill="#263238"/>
<path d="M117.464 48.2779L117.927 44.7781L121.515 47.0408C121.515 47.0408 120.508 49.2292 118.17 49.6153L117.464 48.2779Z" fill="#FF8B7B"/>
<path d="M120.519 42.3604L122.857 44.5183L121.515 47.0408L117.927 44.7781L120.519 42.3604Z" fill="#FF8B7B"/>
<path d="M117.642 56.6958C118.99 53.3149 119.587 48.0924 119.587 48.0924L117.722 47.066C117.722 47.066 116.615 51.0381 114.826 54.2882L117.642 56.6958Z" fill="#FF8B7B"/>
<path d="M101.725 47.6819C101.967 48.179 102.279 48.7693 102.583 49.307C102.888 49.858 103.212 50.4006 103.539 50.94C104.196 52.0168 104.888 53.0684 105.612 54.0757C106.339 55.08 107.088 56.0503 107.873 56.919C108.264 57.3506 108.656 57.7611 109.044 58.1336C109.433 58.4954 109.824 58.8113 110.156 59.0402C110.24 59.099 110.321 59.156 110.388 59.1913L110.493 59.2563C110.523 59.2757 110.499 59.2585 110.49 59.2545C110.479 59.2483 110.467 59.243 110.454 59.239C110.352 59.1918 110.126 59.1215 109.883 59.1127C109.641 59.1034 109.421 59.1467 109.32 59.1847C109.217 59.2178 109.215 59.2275 109.263 59.1887C109.364 59.1113 109.64 58.8666 109.893 58.5184C110.155 58.1733 110.431 57.7509 110.695 57.2901C111.215 56.3583 111.694 55.2895 112.094 54.1756C112.302 53.6211 112.475 53.0458 112.648 52.4732L112.878 51.6085C112.915 51.4654 112.944 51.3205 112.975 51.1795C113.003 51.047 113.041 50.8791 113.049 50.7969L121.878 53.3829C121.786 53.6149 121.718 53.7598 121.638 53.9392L121.407 54.4442L120.945 55.4366C120.643 56.0967 120.314 56.7453 119.987 57.401C119.318 58.7066 118.612 60.0149 117.732 61.3426C117.296 62.0102 116.812 62.6845 116.225 63.3702C115.629 64.0493 114.958 64.7708 113.952 65.4671C113.446 65.8118 112.846 66.1524 112.103 66.4166C111.361 66.6809 110.456 66.8426 109.532 66.805C108.605 66.7728 107.707 66.5236 106.991 66.1882L106.728 66.0596C106.643 66.0172 106.541 65.9651 106.499 65.939L106.168 65.7459C105.939 65.6156 105.741 65.4839 105.547 65.3518C103.996 64.2839 102.898 63.2005 101.838 62.1127C100.805 61.0174 99.856 59.9234 98.9568 58.8144C98.0566 57.7063 97.1969 56.5924 96.355 55.4702L95.106 53.7775L94.4868 52.9212C94.2743 52.6279 94.0801 52.3614 93.8488 52.0234L101.725 47.6819Z" fill="#263238"/>
<path d="M90.8522 32.963L90.1503 32.5411C90.1503 32.5411 90.372 33.2237 90.8522 32.963Z" fill="#263238"/>
<path d="M107.518 27.0797L107.445 27.3584L81.5927 21.1166L81.6652 20.8374L95.2671 21.368L107.518 27.0797Z" fill="#263238"/>
<path d="M107.446 27.3584L93.8442 26.8282L81.5928 21.1166L95.1942 21.6468L107.446 27.3584Z" fill="#3987FB"/>
<path d="M100.934 30.3226C96.0809 28.5862 91.0096 27.3618 85.88 26.688C85.5564 26.6456 85.3205 26.4031 85.3806 26.172L86.3014 22.6386C86.3505 22.45 86.5828 22.3342 86.8467 22.3682C92.0801 23.0447 97.2547 24.2937 102.2 26.0752C102.449 26.1649 102.597 26.373 102.548 26.5612L101.627 30.0946C101.567 30.3252 101.24 30.4322 100.934 30.3226Z" fill="#3987FB"/>
<path opacity="0.3" d="M100.934 30.3226C96.0809 28.5862 91.0096 27.3618 85.88 26.688C85.5564 26.6456 85.3205 26.4031 85.3806 26.172L86.3014 22.6386C86.3505 22.45 86.5828 22.3342 86.8467 22.3682C92.0801 23.0447 97.2547 24.2937 102.2 26.0752C102.449 26.1649 102.597 26.373 102.548 26.5612L101.627 30.0946C101.567 30.3252 101.24 30.4322 100.934 30.3226Z" fill="#263238"/>
<path d="M103.232 40.4981C103.177 40.4981 103.121 40.4799 103.075 40.4424C102.973 40.3589 102.96 40.2113 103.047 40.1128C105.296 37.5643 104.047 36.4102 102.319 34.8125C101.323 33.8926 100.196 32.8499 99.6246 31.3728C98.0529 27.3062 102.861 24.6194 102.91 24.5929C103.026 24.5292 103.175 24.5681 103.241 24.6804C103.307 24.7926 103.267 24.9353 103.15 24.9989C102.965 25.1001 98.6524 27.5169 100.08 31.2094C100.612 32.5866 101.698 33.5895 102.655 34.475C104.355 36.0466 105.961 37.5316 103.417 40.415C103.369 40.4702 103.301 40.4981 103.232 40.4981Z" fill="#3987FB"/>
<path d="M103.232 40.9201C102.856 40.9201 102.551 40.6259 102.551 40.2644C102.551 39.9026 102.857 39.6088 103.232 39.6088C103.608 39.6088 103.913 39.903 103.913 40.2644C103.913 40.6263 103.608 40.9201 103.232 40.9201ZM103.232 40.0762C103.124 40.0762 103.037 40.1606 103.037 40.2644C103.037 40.3683 103.124 40.4527 103.232 40.4527C103.34 40.4527 103.428 40.3683 103.428 40.2644C103.428 40.1606 103.34 40.0762 103.232 40.0762Z" fill="#3987FB"/>
</svg>
